<?xml version="1.0" standalone="no"?><!DOCTYPE svg PUBLIC "-//W3C//DTD SVG 1.1//EN" "http://www.w3.org/Graphics/SVG/1.1/DTD/svg11.dtd"><svg t="1728463501906" class="icon" viewBox="0 0 1024 1024" version="1.1" xmlns="http://www.w3.org/2000/svg" p-id="12402" xmlns:xlink="http://www.w3.org/1999/xlink" width="200" height="200"><path d="M179.2 920.96c-16 0-32.64-6.4-44.8-18.56-18.56-18.56-23.68-46.72-13.44-71.04L442.88 99.2c10.24-23.04 33.28-38.4 58.88-38.4s48.64 15.36 58.88 38.4l321.92 732.16c10.88 24.96 5.12 52.48-13.44 71.04-18.56 18.56-46.08 23.68-70.4 13.44l-296.96-117.76-298.24 118.4c-8.32 3.2-16 4.48-24.32 4.48z m-10.88-94.08c-0.64 0-1.28 0.64-1.92 0.64l1.92-0.64z m665.6-0.64l1.28 0.64c-0.64 0-1.28 0-1.28-0.64z m-332.8-622.08l-261.12 593.92 243.2-96.64c11.52-4.48 24.32-4.48 35.84 0l243.2 96.64-261.12-593.92z" p-id="12403"></path></svg>